<svg xmlns="http://www.w3.org/2000/svg" version="1.0" width="512.000000" height="512.000000" preserveAspectRatio="xMidYMid meet"><rect id="backgroundrect" width="100%" height="100%" x="0" y="0" fill="none" stroke="none"/>

<g class="currentLayer" style=""><title>Layer 1</title><g transform="translate(0,512) scale(0.10000000149011612,-0.10000000149011612) " fill="#f5f5f5" stroke="none" id="svg_1" class="selected" fill-opacity="1">
<path d="M2137 5040 c-60 -11 -129 -50 -161 -93 -58 -76 -56 -22 -56 -1218 l0 -1098 -292 -3 c-319 -3 -324 -4 -358 -61 -29 -47 -26 -96 9 -143 16 -21 294 -303 617 -626 639 -636 608 -610 702 -593 33 6 107 76 626 593 323 323 601 605 617 626 35 47 38 96 9 143 -34 57 -39 58 -357 61 l-293 3 0 1098 c0 1206 3 1146 -60 1223 -17 20 -56 49 -88 65 l-57 28 -405 2 c-223 1 -426 -2 -453 -7z" id="svg_2" fill="#f5f5f5"/>
<path d="M560 1597 c-76 -17 -143 -58 -189 -117 -73 -92 -72 -84 -69 -656 l3 -509 24 -50 c50 -101 145 -168 263 -186 83 -12 3853 -12 3936 0 118 18 213 85 263 186 l24 50 3 509 c3 572 4 564 -69 656 -153 193 -462 156 -568 -69 l-26 -56 -3 -302 -3 -303 -1589 0 -1589 0 -3 303 -3 302 -27 57 c-66 142 -223 219 -378 185z" id="svg_3" fill="#f5f5f5"/>
</g></g></svg>