<svg xmlns="http://www.w3.org/2000/svg" version="1.0" width="1024" height="1024" preserveAspectRatio="xMidYMid meet"><rect id="backgroundrect" width="100%" height="100%" x="0" y="0" fill="none" stroke="none"/>
<g class="currentLayer" style=""><title>Layer 1</title><g transform="translate(0,1024) scale(0.10000000149011612,-0.10000000149011612) " fill="#f5f5f5" stroke="none" id="svg_1" class="selected" fill-opacity="1">
<path d="M4830 8223 c-731 -43 -1412 -224 -2078 -553 -884 -436 -1622 -1048 -2187 -1815 -106 -143 -282 -410 -317 -480 -60 -119 -94 -277 -83 -385 16 -166 63 -273 230 -525 243 -367 468 -638 796 -960 459 -450 958 -801 1554 -1095 288 -142 463 -215 725 -300 607 -199 1220 -284 1873 -259 757 29 1446 204 2142 543 921 449 1679 1086 2258 1897 270 379 347 546 347 749 0 158 -45 284 -170 481 -436 685 -1014 1275 -1705 1738 -865 581 -1775 898 -2750 961 -146 9 -501 11 -635 3z m384 -815 c25 -8 61 -32 93 -63 41 -40 55 -62 68 -109 35 -121 -14 -240 -124 -300 -46 -24 -68 -29 -179 -36 -149 -10 -238 -28 -351 -69 -261 -95 -500 -310 -629 -566 -75 -146 -105 -270 -121 -480 -8 -123 -24 -168 -79 -223 -51 -50 -105 -72 -182 -72 -144 0 -247 101 -258 250 -5 76 11 245 33 357 120 586 618 1114 1199 1268 189 51 437 71 530 43z m-2308 -551 c-352 -693 -350 -1563 5 -2245 115 -220 243 -394 439 -596 398 -409 845 -643 1395 -728 179 -27 557 -30 730 -5 621 89 1148 384 1560 872 302 358 480 749 552 1215 25 164 25 578 0 740 -41 265 -118 507 -232 735 -38 76 -57 124 -48 121 48 -19 324 -185 483 -291 571 -381 1059 -874 1495 -1508 l88 -129 -69 -101 c-686 -1013 -1671 -1790 -2714 -2137 -977 -326 -2031 -316 -3005 28 -551 194 -1112 526 -1610 952 -262 224 -615 602 -836 895 -95 125 -249 350 -249 362 0 5 40 68 88 140 504 740 1132 1324 1856 1726 66 37 121 65 123 64 2 -2 -21 -51 -51 -110z" id="svg_2" fill="#f5f5f5"/>
</g></g></svg>
