<svg xmlns="http://www.w3.org/2000/svg" xmlns:xlink="http://www.w3.org/1999/xlink" version="1.1" style="enable-background:new 0 0 297 297;" xml:space="preserve" width="297" height="297"><rect id="backgroundrect" width="100%" height="100%" x="0" y="0" fill="none" stroke="none"/>
















<g class="currentLayer" style=""><title>Layer 1</title><g id="svg_1" class="selected" fill="#ffffff" fill-opacity="1">
	<g id="svg_2" fill="#ffffff" fill-opacity="1">
		<g id="svg_3" fill="#ffffff" fill-opacity="1">
			<path d="M155,6.5c-30.147,0-58.95,9.335-83.294,26.995c-2.789,2.023-3.547,5.853-1.739,8.787L92.83,79.374     c0.962,1.559,2.53,2.649,4.328,3.004c1.796,0.354,3.661-0.054,5.145-1.129c14.23-10.323,31.069-15.78,48.698-15.78     c45.783,0,83.03,37.247,83.03,83.03c0,45.783-37.247,83.03-83.03,83.03c-17.629,0-34.468-5.456-48.698-15.78     c-1.484-1.076-3.349-1.486-5.145-1.129c-1.798,0.355-3.366,1.444-4.328,3.004l-22.863,37.093     c-1.808,2.934-1.05,6.763,1.739,8.787C96.05,281.165,124.853,290.5,155,290.5c78.299,0,142-63.701,142-142S233.299,6.5,155,6.5z" id="svg_4" fill="#ffffff" fill-opacity="1"/>
			<path d="M90.401,201.757c1.147-2.142,1.021-4.74-0.326-6.76l-15.463-23.195h93.566c12.849,0,23.302-10.453,23.302-23.302     s-10.453-23.302-23.302-23.302H74.612l15.463-23.195c1.348-2.02,1.473-4.618,0.326-6.76c-1.146-2.141-3.377-3.478-5.806-3.478     H40.019c-2.201,0-4.258,1.1-5.479,2.933L1.106,144.847c-1.475,2.212-1.475,5.093,0,7.306l33.433,50.149     c1.221,1.832,3.278,2.933,5.479,2.933h44.577C87.025,205.235,89.256,203.898,90.401,201.757z" id="svg_5" fill="#ffffff" fill-opacity="1"/>
		</g>
	</g>
</g><g id="svg_6">
</g><g id="svg_7">
</g><g id="svg_8">
</g><g id="svg_9">
</g><g id="svg_10">
</g><g id="svg_11">
</g><g id="svg_12">
</g><g id="svg_13">
</g><g id="svg_14">
</g><g id="svg_15">
</g><g id="svg_16">
</g><g id="svg_17">
</g><g id="svg_18">
</g><g id="svg_19">
</g><g id="svg_20">
</g></g></svg>