<svg id="Layer_1" xmlns="http://www.w3.org/2000/svg" viewBox="0 0 580.14 580.72">
    <defs>
        <style>.cls-1{fill:#233365;}</style>
    </defs>
    <title>anim</title>
    <path class="cls-1"
          d="M424.27,262.05c10.72.12,18.51,7.81,18.57,18.25.1,18.5,0,37,0,55.5,0,29-.06,58.07,0,87.11,0,8.61-3.61,14.8-11.32,18.47a21.42,21.42,0,0,1-6.17,1.4,30.83,30.83,0,0,1-4.51.07q-123.25,0-246.49,0a54.23,54.23,0,0,1-9.51-.92c-6.5-1.16-11.3-6.3-12.36-15.25a33.24,33.24,0,0,1-.08-3.87q0-70.65-.07-141.31c0-6.16,1.37-11.53,6.15-15.51,2.38-2,5.29-3.34,8.32-5.19C166,260,165,259,164,258.15a20.51,20.51,0,0,1-7.58-14.27c-1-8.88-2.49-17.71-3.52-26.59a47.71,47.71,0,0,1-.25-11.57c.82-6.38,4.74-11.74,12-13.27,7.48-1.56,245.62-39.17,251.54-39.88,11.19-1.35,20.93,4.28,22.75,19.43q1.71,14.28,3.76,28.51c1.24,8.63-3.69,17.81-11.49,21-4,1.63-5.08,1.29-7.24-2.4-4.85-8.29-16.75-28.5-17.8-30.18L370.53,194l22.53,34.06-60.27,9.52-22.66-33.84-32.49,4.52c7.49,11.35,14.79,22.42,22.42,34L237.4,252.33c-6.59-11-13-21.33-19-31.94-1.85-3.3-3.88-4.08-7.18-3.45-5,1-10.05,1.78-15.05,2.78-4.55.92-9.08,2-14.08,3.13a11.55,11.55,0,0,0,1,3.21c6.66,9.94,13.42,19.81,20.12,29.72a8.79,8.79,0,0,1,.67,2L188,260l-.05.77h19.27c-6.18,12.46-11.89,24-17.87,36.07,2.4.15,23.37.26,32.18.47,2.82.07,4.23-.94,5.4-3.37,4.35-9,8.87-18,13.35-27,.95-1.9,2-3.75,3.08-5.77H297.6l-17.66,35.65h35.95l17.93-35.63h53.85c-1.5,6.76-5.47,12.07-8.11,17.94s-5.69,11.43-8.82,17.65c1.92.14,3.5.35,5.08.36,9,.05,18.06,0,27.09.11,2.73,0,4.19-.89,5.41-3.4C413.43,283.32,418.81,272.89,424.27,262.05ZM297.62,334.26H202.11c-1.94,0-3.87,0-5.81.11-4.1.18-6.12,3.23-7.27,6.38a7.75,7.75,0,0,0,2.33,8.79,11.65,11.65,0,0,0,8.28,2.85c7.52-.07,15.05,0,22.58,0q85.18,0,170.37-.05a25.72,25.72,0,0,0,8.16-1.13c5.7-1.94,7.34-8.11,3.88-13-2.4-3.38-5.7-4-9.57-4Q346.34,334.33,297.62,334.26Zm-.29,54.3H202.51c-1.72,0-3.45-.05-5.16.06a9.92,9.92,0,0,0-8.56,7.49c-.74,3.34,1.55,7.88,5.3,9.33a21.2,21.2,0,0,0,7.48,1.17q95.79.09,191.59,0a27.12,27.12,0,0,0,4.51-.08c4.69-.8,9.2-5.79,8.8-9.56-.5-4.65-4.56-8.17-9.8-8.44-1.5-.07-3,0-4.51,0Z"
          transform="translate(-7.57 -7.28)"/>
    <path class="cls-1"
          d="M297,588C134.37,585,7,458.18,7.57,296.43,8.1,134.3,136.72,6.57,298.8,7.28c163,.71,289.75,130.21,288.9,291.47C586.85,460.72,458.65,585.77,297,588Zm.34-572.67C141.67,14.84,15.65,142.56,15.44,297,15.23,452.25,142.11,579.48,297.5,579.54c155.62.06,282.39-127.11,282.33-282.29C579.78,142.35,453.26,14.47,297.3,15.33Z"
          transform="translate(-7.57 -7.28)"/>
</svg>
