<svg id="Layer_1" xmlns="http://www.w3.org/2000/svg" viewBox="0 0 571.17 570.72">
    <defs>
        <style>.cls-1{fill:#233365;}</style>
    </defs>
    <title>didi</title>
    <path class="cls-1"
          d="M583.22,297.56c-1.35,78.94-28.56,146.83-84.29,202.25s-123.35,83-202.06,83.19c-72,.19-135.43-24-188.7-71.5C44.67,454.84,12,383,12.05,297.27c0-78.79,28.16-146.46,83.81-201.77S219.44,11.87,298.53,12.28c78.38.41,145.63,28.44,200.9,83.67C555,151.5,582.05,219.46,583.22,297.56ZM299.16,573.48c74-2.24,139.63-28.06,192.92-81.57s80.73-119.12,80.66-194.4-27.38-140.93-80.82-194.33c-53.65-53.6-119.48-81.14-195.14-81-75.27.18-140.74,27.72-194.1,81.14S22,222.49,22,297.73s27.48,140.89,80.82,194.34C156.42,545.79,222.38,571.57,299.16,573.48Z"
          transform="translate(-12.05 -12.28)"/>
    <path class="cls-1"
          d="M474.34,278.75c0,27.89-.53,55.79.18,83.67.52,20.27-21.34,42.26-41.47,41.88-27.25-.52-54.51-.08-81.77-.05-1.9,0-3.82.14-5.7,0-3.11-.27-4.62.63-4.52,4.14.22,7.28.19,14.58,0,21.86-.08,3.26,1,4.39,4.32,4.35,13.31-.16,26.63.08,39.94-.14A13.51,13.51,0,0,1,396.16,439c7.35,7.77,4.94,20.24-5.07,23.84a36.33,36.33,0,0,1-11.91,1.92q-82.71.18-165.44.09c-7,0-13.34-1-18.26-7.11a13.35,13.35,0,0,1-2-14.18c2.22-5,6.3-9.25,13.18-9.1,13.31.28,26.62.09,39.93,0,5,0,5.1-.12,5.15-5.26q.12-10,0-20c-.06-4.87-.15-5-5.43-5-27.89,0-55.81-.75-83.67.19-20.57.7-38.79-16.36-42.51-32a57.14,57.14,0,0,1-1.56-13q-.17-68.94-.07-137.87c0-9.19-.19-18.39.09-27.57.43-13.61,6.41-24.16,17.15-32.73,9.44-7.53,20.33-9.74,31.48-9.77q130.26-.45,260.53-.12c12.58,0,24.16,4.06,33.24,12.73,8.05,7.69,13.3,17.42,13.34,29,.09,28.53,0,57.05,0,85.58ZM296.9,181.61q-55.63,0-111.27,0c-7.92,0-15.85-.09-23.77.07a13,13,0,0,0-12.68,9.26,40.68,40.68,0,0,0-1.86,12.87q-.18,74.66-.08,149.3c0,1.91-.14,3.82,0,5.71.85,9.49,6.58,15.45,16,16.58a56.69,56.69,0,0,0,6.65,0h253a56.88,56.88,0,0,0,6.66,0c9.44-1.13,15.17-7.09,16-16.58.17-1.88,0-3.8,0-5.7V203.82c0-1.91.35-3.89-.07-5.69-1.34-5.69-2.42-11.36-8.32-14.83-3.4-2-6.67-1.64-10-1.65Q362,181.55,296.9,181.61Zm-.61,252.9c8.55,0,17.09-.07,25.64,0,2.69,0,4.06-.65,4-3.65-.12-7.59-.1-15.19,0-22.79,0-2.73-.81-3.93-3.76-3.91-17.09.1-34.18.13-51.27,0-3.66,0-4.07,1.7-4,4.63.12,7,.19,13.93,0,20.88-.11,3.59.82,5.06,4.75,4.91C279.82,434.3,288.06,434.51,296.29,434.51Z"
          transform="translate(-12.05 -12.28)"/>
    <path class="cls-1"
          d="M296.62,196.73q57.54,0,115.06,0c13.5,0,18.77,5.28,18.79,18.86,0,36.77-.28,73.54.18,110.31.15,11.69-8,19.45-19.85,19.39q-114.58-.56-229.17,0c-11.73.05-19.64-8-19.47-19.79.53-36.44.24-72.9.14-109.35a25.2,25.2,0,0,1,3.1-12.53c2.36-4.38,5.87-6.31,10.46-6.75,2.52-.24,5.07-.12,7.6-.12ZM296,330v0q56.52,0,113.05,0c6.15,0,6.28.53,6.26-6.1q-.08-51.76,0-103.54c0-9.69,1.07-8.47-8.64-8.48q-110.19,0-220.38,0c-1.9,0-3.89-.32-5.67.14a4.53,4.53,0,0,0-2.79,2.72c-.47,1.78-.15,3.77-.15,5.67V322c0,1.59.08,3.17,0,4.75-.15,2.51,1.13,3.31,3.42,3.23s4.43,0,6.65,0Z"
          transform="translate(-12.05 -12.28)"/>
</svg>
