<svg id="Layer_1" xmlns="http://www.w3.org/2000/svg" viewBox="0 0 571.17 570.72">
    <defs>
        <style>.cls-1{fill:#233365;}</style>
    </defs>
    <title>dpin</title>
    <path class="cls-1"
          d="M468.38,259.42c-5.9-22.58-14-44.21-26.45-64.08-13.69-21.9-33.15-33.36-59.31-32.63-17.57.49-33.47,5.52-46.91,17.25a46,46,0,0,1-30.53,11.56C294,191.43,283.25,187,274,179.39c-20-16.47-43-20.23-67.71-14-17,4.31-28.73,15.66-37.8,30.1-15.42,24.59-24.1,51.75-30.19,79.86a338.85,338.85,0,0,0-6.84,47.41c-.79,10.88-1.31,21.72-.45,32.52.95,11.85,3.67,23.39,9.42,34,12.15,22.48,35.2,31.49,56.57,26.69,14.72-3.31,26.6-10.92,36.7-21.7a396,396,0,0,0,30.08-35.49c1.67-2.27,3.08-4.77,5.57-6.5h72.29c1.58,2,3.21,4,4.77,6a440.32,440.32,0,0,0,30,35.57c9.18,9.74,19.67,17.32,32.81,21,23,6.52,44.17-.86,57.67-20.54,8.75-12.78,12.15-27.3,12.78-42.41C481,320.57,476.31,289.78,468.38,259.42ZM283,267.07c-.78,6.29-6.16,11.42-13.25,12-5.14.4-10.33.15-15.49.18h-7.21V293c0,2.33.08,4.66,0,7-.42,9.2-5.92,15.16-14.07,15.33-8.49.18-14.6-5.84-15.15-15.17-.22-3.6-.05-7.23-.05-10.85,0-3.06,0-6.12,0-10.06-6.2,0-12,0-17.91,0-2.82,0-5.59,0-8.37-1.06-6.16-2.45-9.73-7.11-9.76-13.4a13.73,13.73,0,0,1,9.62-13.49,21.45,21.45,0,0,1,8.35-1.35c2.83.14,5.68,0,8.52,0H217c1.6-4.65.53-9.29.78-13.81.16-2.83-.2-5.71.14-8.51,1-8.35,7.24-13.91,15-13.72S246.47,220,247,228.53c.27,4.64,0,9.3.1,13.95.05,2.27-.47,4.61.72,7.5h17.42a21,21,0,0,1,7.6,1C280.41,253.77,284,259.24,283,267.07Zm76.68,34c-9.32.09-17.93-8.69-18-17.7A18,18,0,0,1,359.62,265c10.57-.08,18.14,7.39,18.16,17.91A18,18,0,0,1,359.68,301Zm36-43.64c-9.81-.34-18.07-9.12-17.67-18.78.41-10.06,8.6-17.54,18.88-17.25,11.79,0,17.68,10,17.6,18.49C414.39,249.54,405.39,257.74,395.68,257.4Z"
          transform="translate(-12.05 -12.28)"/>
    <path class="cls-1"
          d="M583.22,297.56c-1.35,78.94-28.56,146.83-84.29,202.25s-123.35,83-202.06,83.19c-72,.19-135.43-24-188.7-71.5C44.67,454.84,12,383,12.05,297.27c0-78.79,28.16-146.46,83.81-201.77S219.44,11.87,298.53,12.28c78.38.41,145.63,28.44,200.9,83.67C555,151.5,582.05,219.46,583.22,297.56ZM299.16,573.48c74-2.24,139.63-28.06,192.92-81.57s80.73-119.12,80.66-194.4-27.38-140.93-80.82-194.33c-53.65-53.6-119.48-81.14-195.14-81-75.27.18-140.74,27.72-194.1,81.14S22,222.49,22,297.73s27.48,140.89,80.82,194.34C156.42,545.79,222.38,571.57,299.16,573.48Z"
          transform="translate(-12.05 -12.28)"/>
</svg>
