<svg id="Layer_1" xmlns="http://www.w3.org/2000/svg" viewBox="0 0 574.63 573.47">
    <defs>
        <style>.cls-1{fill:#233365;}</style>
    </defs>
    <title>ing</title>
    <path class="cls-1"
          d="M10.52,297.09C10.1,139,139.66,10.52,297.79,10.53S585.32,139.16,585.15,297.65,455.31,584.15,297.5,584C139.43,583.85,9.82,455.25,10.52,297.09Zm564.33,3c-.64-51.38-12.09-99.73-39.31-145.2a275.19,275.19,0,0,0-102-99.57c-42-23.82-87.51-35.9-135.75-35.55-76.12.54-142,27.59-195.78,81.43S21,220.73,21,296.64c0,76.09,27.39,142.1,81.29,195.85C156,546.08,221.84,573.6,297.77,573.38c80.69-.23,149.29-30.51,204.14-90C550.4,430.76,573.5,367.86,574.85,300.07Z"
          transform="translate(-10.52 -10.53)"/>
    <path class="cls-1"
          d="M296.51,165.14c29,0,58.08.14,87.11,0,17.4-.11,31.52,6.32,42.7,19.61a49.9,49.9,0,0,1,11.48,27.77,95.12,95.12,0,0,1,.29,9.56q0,85.67-.07,171.34a83.69,83.69,0,0,1-1.74,17c-4.74,22.66-27.22,40.21-51.73,40-53.28-.41-106.57-.12-159.85-.12-6.38,0-12.76-.06-19.14,0-28.78.12-52.52-23.55-52.53-52.11,0-60.3.1-120.61-.07-180.91-.08-27.62,23.45-52.16,52.62-52.06,30.31.1,60.62,0,90.93,0ZM404.16,307.65c0-28.4.08-56.79,0-85.19-.07-16.2-7.19-23.32-23.46-23.35q-85.18-.12-170.37,0c-16.14,0-23.33,7.22-23.36,23.47q-.12,85.19,0,170.38c0,16.12,7.28,23.2,23.47,23.38.95,0,1.91,0,2.87,0H377c2.87,0,5.76.1,8.61-.18,10.54-1,17.43-7.94,18.48-18.53.25-2.53.12-5.1.12-7.65Z"
          transform="translate(-10.52 -10.53)"/>
    <path class="cls-1"
          d="M332,288.52c1.94-24.27-1.13-29.68-17.4-36.49V218.92c18.17.58,31.87,8.14,42.15,22.38s10,31,10.31,48c9.49,3.41,18,8,17,19.86-.85,9.68-7.63,14-17.2,16,0,5,.22,9.71,0,14.41-.74,13.51-3.15,26.38-12.36,37.25-10.28,12.12-23.18,18.29-40,19.57-.42-11.4-.09-22.39-.19-33.88,19.81-4.5,19.25-19.27,17.29-35.43,10.53-2.86,18.93-8.44,18.07-20.74C348.92,296.14,342.18,290.65,332,288.52Z"
          transform="translate(-10.52 -10.53)"/>
    <path class="cls-1"
          d="M276.46,396c-27.21-.4-48.69-21.82-50.74-44.24-.81-8.8-1.55-17.61-2.36-26.88-9-1.76-15.5-6.76-16.12-16.16-.73-11.1,7.22-16.09,16.16-19.23.85-9.64,1.08-18.89,2.6-27.93,3.69-22,20.3-38,43.64-42.33,2.08-.38,4.3,0,6.95,0,.15,2.85.35,5,.36,7.18,0,8.57,0,17.15,0,25.33-18,9-18.6,10.16-17.89,36.29-9.41,3.33-17.6,7.9-17.31,20.28.27,11.58,7.92,15.74,17,18.47-1.22,24.69,1.31,29.86,17.68,35.84Z"
          transform="translate(-10.52 -10.53)"/>
</svg>
