<svg id="Layer_1" xmlns="http://www.w3.org/2000/svg" viewBox="0 0 819.2 231.23">
    <defs>
        <style>
            .cls-1,.cls-2{fill:#fff;}.cls-2,.cls-7{stroke:#010101;}.cls-2{stroke-linejoin:round;stroke-width:7.35px;}.cls-3{fill:#4e4d4d;}.cls-4{fill:#9a9999;}.cls-5{fill:#808181;}.cls-6{fill:#676767;}.cls-7{fill:none;stroke-linecap:round;stroke-miterlimit:10;stroke-width:5.58px;}
        </style>
    </defs>
    <title>UPuntes_Logo</title>
    <path class="cls-1"
          d="M241.4,406.12H111.29a15.3,15.3,0,0,1-15.24-15.36v-152l45.57-51.41H241.4a15.31,15.31,0,0,1,15.24,15.36v188A15.31,15.31,0,0,1,241.4,406.12Z"
          transform="translate(-11.8 -181.14)"/>
    <path class="cls-2" d="M130.87,229.23" transform="translate(-11.8 -181.14)"/>
    <polyline class="cls-1" points="131.1 9.82 131.1 61.22 85.16 61.22"/>
    <path class="cls-3"
          d="M241.4,181.14H141.62a6.25,6.25,0,0,0-4.68,2.1l-45.57,51.4a6.26,6.26,0,0,0-1.57,4.15v152a21.57,21.57,0,0,0,21.49,21.6H241.4c11.84,0,23.74-11.06,23.74-23V202.68C265.14,190.77,253.24,181.14,241.4,181.14Zm-104,20.39v35.36H106.08ZM253.65,389.38c0,5-7.29,10.49-12.25,10.49H111.29a9.07,9.07,0,0,1-9-9.11V247.82H142.9a5.45,5.45,0,0,0,5.46-5.46V193.63h93c5,0,12.25,4,12.25,9.05Z"
          transform="translate(-11.8 -181.14)"/>
    <path class="cls-4" d="M341.14,327.61h-54.9V307.12h54.9Z" transform="translate(-11.8 -181.14)"/>
    <path class="cls-4"
          d="M386.2,336.54V385H364.57V254.38h47.62q20.87,0,33.13,11.41T457.59,296q0,19.21-12,29.9t-33.64,10.69Zm0-18.3h26q11.55,0,17.61-5.69t6.08-16.46q0-10.59-6.16-16.91t-16.93-6.5H386.2Z"
          transform="translate(-11.8 -181.14)"/>
    <path class="cls-4"
          d="M518.28,376.82q-9,10.24-25.53,10.24-14.78,0-22.38-8.37t-7.6-24.23v-57h20.41v56.75q0,16.74,14.36,16.74,14.86,0,20.07-10.32V297.47H538v88H518.79Z"
          transform="translate(-11.8 -181.14)"/>
    <path class="cls-4"
          d="M567.54,299.06l.59,10q10.22-11.55,26.8-11.55,28.76,0,29.26,30.84v57H603.52V329.42q0-8.21-3.79-12.15t-12.37-3.94q-12.51,0-18.63,10.6v61.36H548.06V299.06Z"
          transform="translate(-11.8 -181.14)"/>
    <path class="cls-4"
          d="M661.18,254.38V280l23.33.28v17.24l-23.33,0v58.71q0,6,2.54,8.7t9.09,2.67a41.31,41.31,0,0,0,8.83-1v18.28A66.18,66.18,0,0,1,665,387.06q-29.07,0-29.07-30V297.44H617.47V280H636V254.38Z"
          transform="translate(-11.8 -181.14)"/>
    <path class="cls-4"
          d="M721.59,387.06q-18.48,0-30-11.24t-11.48-29.95v-2.32a48.69,48.69,0,0,1,5-22.38,37.17,37.17,0,0,1,14-15.34,38.09,38.09,0,0,1,20.16-5.49q17.68,0,27.33,10.9t9.64,30.84v7.57H699.75q.88,10.37,7.16,16.39a21.92,21.92,0,0,0,15.8,6,26.66,26.66,0,0,0,21.77-10.44L755,371.29a34.77,34.77,0,0,1-13.88,11.64A44.88,44.88,0,0,1,721.59,387.06Zm-2.32-71.65a16.66,16.66,0,0,0-12.92,5.41q-4.92,5.42-6.28,15.07h37V334.5q-.64-9.42-5.21-14.26T719.27,315.41Z"
          transform="translate(-11.8 -181.14)"/>
    <path class="cls-4"
          d="M810.79,362a8.7,8.7,0,0,0-4.52-7.91q-4.53-2.71-15-4.79a80.16,80.16,0,0,1-17.5-5.27q-15.39-7-15.38-20.36,0-11.18,10-18.69t25.37-7.5q16.39,0,26.5,7.66T830.32,325H809.78a11.7,11.7,0,0,0-4.4-9.31Q801,312,793.72,312q-6.76,0-11,3a9.17,9.17,0,0,0-4.27,7.9,7.78,7.78,0,0,0,4,6.95q4,2.47,16.06,5t19,6a26.54,26.54,0,0,1,10.23,8.34A20.38,20.38,0,0,1,831,361q0,11.66-10.23,18.89T794,387.06a49.78,49.78,0,0,1-20-3.83,32.64,32.64,0,0,1-13.69-10.54,24,24,0,0,1-4.91-14.45h20a13.44,13.44,0,0,0,5.49,10.58q5.07,3.71,13.44,3.71,8.12,0,12.35-2.92A8.86,8.86,0,0,0,810.79,362Z"
          transform="translate(-11.8 -181.14)"/>
    <path class="cls-5"
          d="M230,254.38V339.2q0,20.24-11.82,32t-31.5,11.81q-19.9,0-31.62-11.63t-11.7-32.3V254.38h20.07v84.91q0,12.73,5.89,19.44t17.36,6.71q23.25,0,23.25-26.85V254.38Z"
          transform="translate(-11.8 -181.14)"/>
    <polygon class="cls-1" points="112.7 174.74 20.12 118.15 34.66 94.37 127.24 150.96 142.9 176.87 112.7 174.74"/>
    <path class="cls-6"
          d="M154.7,363h-.35l-30.2-2.12a5.1,5.1,0,0,1-2.24-.72l-92.59-56.6a5,5,0,0,1-1.65-6.84l14.54-23.78a5,5,0,0,1,6.84-1.65l92.59,56.59a5,5,0,0,1,1.66,1.67L159,355.43A5,5,0,0,1,154.7,363Zm-28.64-12,19.42,1.37-10.07-16.66-87.3-53.36-9.35,15.29Z"
          transform="translate(-11.8 -181.14)"/>
    <path class="cls-7" d="M157.3,353.76" transform="translate(-11.8 -181.14)"/>
    <path class="cls-6"
          d="M124.5,360.86a5,5,0,0,1-4.24-7.58l14.53-23.78a5,5,0,0,1,8.5,5.2l-14.54,23.78A5,5,0,0,1,124.5,360.86Z"
          transform="translate(-11.8 -181.14)"/>
    <path class="cls-6"
          d="M34.22,299.05a5.48,5.48,0,0,1-2.83-.8l-17-10.39a5.43,5.43,0,0,1-1.8-7.47L20,268.23a5.45,5.45,0,0,1,7.47-1.8l17,10.39a5.43,5.43,0,0,1,1.8,7.47l-7.43,12.15a5.4,5.4,0,0,1-3.36,2.45A5.54,5.54,0,0,1,34.22,299.05Zm-9.51-17.63,7.71,4.72,1.76-2.88-7.71-4.72Z"
          transform="translate(-11.8 -181.14)"/>
    <path class="cls-6"
          d="M99.42,297.7a5.77,5.77,0,0,1-3-.84l-25-15.32c-2.7-1.64-5-2.34-6.2-1.87s-1.68,2.09-1.69,2.11a5.72,5.72,0,0,1-11-2.95c.19-.73,2.09-7.22,8.49-9.78,4.79-1.91,10.31-1,16.41,2.73l25,15.32a5.72,5.72,0,0,1-3,10.6Z"
          transform="translate(-11.8 -181.14)"/>
</svg>
